<?xml version="1.0" encoding="utf-8"?>
<!-- Generator: Adobe Illustrator 16.0.0, SVG Export Plug-In . SVG Version: 6.00 Build 0)  -->
<!DOCTYPE svg PUBLIC "-//W3C//DTD SVG 1.0//EN" "http://www.w3.org/TR/2001/REC-SVG-20010904/DTD/svg10.dtd">
<svg version="1.0" id="Layer_1" xmlns="http://www.w3.org/2000/svg" xmlns:xlink="http://www.w3.org/1999/xlink" x="0px" y="0px"
	 width="800px" height="800px" viewBox="0 0 800 1200" enable-background="new 0 0 800 800" xml:space="preserve">
<g>
	<g id="g9858" transform="translate(551.583,73.997)">
		<path id="path9860" fill="#28842E" d="M218.913,262.512h-608.778c-21.281,0-32.117,0.22-43.965,1.675
			c-26.672,3.089-50.225,14.595-64.647,31.589c-14.438,17.218-22.16,38.227-22.16,60.696c0,25.488,10.067,49.396,28.416,67.295
			c13.669,13.35,31.254,21.453,53.712,24.809c14.999,2.248,29.997,2.105,43.284,1.943l9.229-0.074h554.646L218.913,262.512z"/>
	</g>
	<g id="g9862" transform="translate(541.364,38.892)">
		<path id="path9864" fill="#FFFFFF" d="M175.634,481.393h-551.411c-36.577,0-74.643,2.387-103.272-25.531
			c-16.811-16.449-27.149-39.127-27.149-64.285c0-21.982,7.926-42.484,21.019-58.021c15.015-17.721,38.65-27.343,62.073-30.112
			c12.05-1.487,23.279-1.665,43.461-1.665h603.259L175.634,481.393z"/>
	</g>
	<g id="g9866" transform="translate(522.41,60.683)">
		<path id="path9868" fill="#FC060D" d="M95.362,345.526c-2.947,0-4.938,1.293-7.004,3.33c-7.053,6.926-15.166,28.021-19.166,44.34
			c-1.838,7.826-2.713,12.223-2.713,16.83c0,4.361,1.99,6.816,5.408,6.816c2.682,0,5.576-1.863,7.602-4.02
			c3.676-3.807,6.209-9.367,9.094-16.262c6.873-16.264,11.789-37.436,11.789-44.365C100.371,348.825,99.334,345.526,95.362,345.526
			 M120.301,390.594c-8.652,24.186-22.902,43.748-50.932,43.748c-19.406,0-30.457-9.418-30.457-29.385
			c0-8.826,2.193-18.232,4.967-26.572c7.916-23.232,25.113-50.417,52.582-50.417c20.547,0,30.484,10.38,30.484,30.681
			C126.945,368.44,123.662,381.344,120.301,390.594 M-196.347,405.54c0,6.271,2.968,11.266,9.784,11.266c2.576,0,4.989,0,7.58-0.561
			l9.058-33.074C-182.49,384.684-196.347,390.778-196.347,405.54 M-138.553,367.487l-17.15,62.254
			c-12.009,3.125-24.39,4.947-36.965,4.947c-15.852,0-31.563-7.721-31.563-25.641c0-31.189,33.604-40.059,58.729-42.445
			c1.309-4.078,2.575-8.313,2.575-12.57c0-6.988-6.093-8.689-12.004-8.689c-8.282,0-19.569,2.246-27.479,4.801l4.424-16.999
			c8.475-3.68,21.401-5.324,30.656-5.324c15.131,0,31.385,4.821,31.385,22.887C-135.945,356.409-137.045,361.969-138.553,367.487
			 M62.014,330.721c-4.166-2.256-11.266-2.753-17.061-2.753c-11.596,0-25.291,2.057-35.777,7.434l-26.793,96.539H9.365
			l22.986-84.018c4.021-1.449,8.006-2.02,12.244-2.02c3.488,0,5.445,0.172,7.012,0.256L62.014,330.721z M-211.98,326.035
			c0-18.291-12.37-24.746-28.991-24.746c-16.795,0-31.002,7.728-41.703,20.475c-14.982,17.898-27.368,55.801-27.368,78.844
			c0,24.191,9.988,35.846,34.525,35.846c34.211,0,42.487-27.73,50.439-55.24l-29.541,5.553c-2.388,7.732-8.314,30.096-18.679,30.096
			c-6.262,0-7.555-5.883-7.555-11.049c0-15.523,9.25-45.08,14.789-59.838c2.952-7.773,10.528-25.693,20.856-25.693
			c2.371,0,4.031,1.277,4.754,2.507c0.947,1.435,1.214,3.1,1.214,5.157c0,0.816-0.204,3.246-0.591,4.994
			c-0.718,3.665-6.104,23.16-6.104,23.16l28.422-4.963C-215.319,343.505-211.98,333.93-211.98,326.035 M-63.611,330.747
			c-6.854-2.016-14.381-2.927-21.443-2.927c-20.836,0-42.917,11.234-43.105,34.704c-0.184,21.244,25.631,28.41,25.5,40.445
			c-0.115,9.795-8.801,13.484-17.276,13.484c-6.847,0-14.124-0.926-20.747-2.773l-4.705,16.244
			c8.664,2.779,19.196,4.051,28.201,4.051c21.076,0,40.557-11.992,40.781-34.879c0.215-22.553-24.135-27.506-24.051-40.447
			c0.084-10.014,10.1-12.92,18.434-12.92c4.391,0,9.197,0.346,13.643,1.314L-63.611,330.747z M0.031,331.339h-19.742l7.695-28.479
			l-28.404,4.648l-6.24,23.831h-9.816l-4.434,15.705h9.805c0,0-15.166,55.178-16.26,59.768c-0.734,2.984-1.482,6.664-1.482,9.643
			c0,7.383,4.822,12.723,11.068,14.396c2.365,0.744,6.455,1.09,11.119,1.09h19.572l4.398-15.867h-9.947
			c-4.424,0-8.496-0.389-8.496-5.551c0-1.287,0.371-2.783,0.713-4.596c0.549-2.234,16.27-58.883,16.27-58.883h19.711L0.031,331.339z
			 M155.172,402.776c-0.598,2.592-0.951,4.826-0.951,6.643c0,5.533,4.25,6.654,8.873,6.654h9.254l-3.727,15.867h-18.453
			c-5.773,0-10.361-0.57-13.135-1.648c-6.256-2.598-10.318-8.141-10.318-16.449c0-3.707,0.738-7.549,1.645-11.422
			c1.119-4.813,26.018-94.179,26.018-94.179l28.289-5.382C182.666,302.859,156.078,398.686,155.172,402.776"/>
	</g>
	<g id="g9870" transform="translate(423.914,55.069)">
		<path id="path9872" fill="#FCA48C" d="M-321.776,380.529c-0.989,0-1.738-0.795-1.738-1.736c0-0.975,0.749-1.756,1.738-1.756h4.717
			c0.921,0,1.754,0.781,1.754,1.756c0,0.941-0.833,1.736-1.754,1.736H-321.776z M-326.954,374.745c-0.659,0-1.198-0.541-1.198-1.189
			c0-0.686,0.539-1.203,1.198-1.203h2.989c0.639,0,1.178,0.518,1.178,1.203c0,0.648-0.523,1.189-1.178,1.189H-326.954z
			 M-327.138,385.314h-2.916c-0.686,0-1.177-0.564-1.177-1.219s0.528-1.195,1.177-1.195h2.916c0.66,0,1.21,0.541,1.21,1.195
			S-326.452,385.314-327.138,385.314 M-333.037,379.964h-2.906c-0.664,0-1.188-0.561-1.188-1.193c0-0.676,0.523-1.221,1.188-1.221
			h2.906c0.69,0,1.209,0.545,1.209,1.221C-331.828,379.404-332.347,379.964-333.037,379.964 M-338.634,374.745h-2.937
			c-0.681,0-1.204-0.541-1.204-1.189c0-0.686,0.523-1.203,1.204-1.203h2.937c0.67,0,1.225,0.518,1.225,1.203
			C-337.409,374.204-337.964,374.745-338.634,374.745 M-341.759,385.314h-2.932c-0.66,0-1.251-0.564-1.251-1.219
			s0.591-1.195,1.251-1.195h2.932c0.659,0,1.178,0.541,1.178,1.195S-341.1,385.314-341.759,385.314 M-338.424,361.767h2.915
			c0.671,0,1.231,0.539,1.231,1.215c0,0.664-0.529,1.215-1.231,1.215h-2.915c-0.691,0-1.215-0.551-1.215-1.215
			C-339.639,362.306-339.115,361.767-338.424,361.767 M-332.766,366.966h2.958c0.66,0,1.226,0.539,1.226,1.213
			c0,0.682-0.565,1.205-1.226,1.205h-2.958c-0.68,0-1.24-0.523-1.24-1.205C-334.006,367.505-333.445,366.966-332.766,366.966
			 M-323.787,361.767h2.932c0.659,0,1.215,0.539,1.215,1.215c0,0.664-0.556,1.215-1.215,1.215h-2.932
			c-0.681,0-1.251-0.551-1.251-1.215C-325.038,362.306-324.468,361.767-323.787,361.767 M-313.982,366.421
			c0.985,0,1.76,0.795,1.76,1.744c0,0.957-0.774,1.717-1.76,1.717h-4.705c-0.953,0-1.78-0.76-1.78-1.717
			c0-0.949,0.827-1.744,1.78-1.744H-313.982z"/>
	</g>
	<g id="g9874" transform="translate(421.815,57.198)">
		<path id="path9876" fill="#FC060D" d="M-330.667,367.255h2.958c0.66,0,1.226-0.523,1.226-1.205c0-0.674-0.565-1.213-1.226-1.213
			h-2.958c-0.68,0-1.24,0.539-1.24,1.213C-331.907,366.732-331.346,367.255-330.667,367.255"/>
	</g>
	<g id="g9878" transform="translate(423.53,58.189)">
		<path id="path9880" fill="#FC060D" d="M-323.403,361.077h2.932c0.659,0,1.215-0.551,1.215-1.215c0-0.676-0.556-1.215-1.215-1.215
			h-2.932c-0.681,0-1.251,0.539-1.251,1.215C-324.654,360.526-324.084,361.077-323.403,361.077"/>
	</g>
	<g id="g9882" transform="translate(427.593,58.918)">
		<path id="path9884" fill="#FC060D" d="M-306.196,356.531h-4.916c-1.466,0-2.649,1.129-2.649,2.602
			c0,1.455,1.184,2.639,2.649,2.639h3.654l1.581-5.24H-306.196z"/>
	</g>
	<g id="g9886" transform="translate(424.164,57.431)">
		<path id="path9888" fill="#FC060D" d="M-320.718,365.803c0,0.957,0.827,1.717,1.78,1.717h4.705c0.984,0,1.76-0.76,1.76-1.717
			c0-0.949-0.775-1.744-1.76-1.744h-4.705C-319.891,364.059-320.718,364.854-320.718,365.803"/>
	</g>
	<g id="g9890" transform="translate(424.95,54.398)">
		<path id="path9892" fill="#FC060D" d="M-317.389,384.713c0,1.445,1.204,2.621,2.623,2.621h3.748l1.545-5.244h-5.293
			C-316.185,382.09-317.389,383.248-317.389,384.713"/>
	</g>
	<g id="g9894" transform="translate(426.753,55.894)">
		<path id="path9896" fill="#FC060F" d="M-309.753,375.385h0.004l0.017-0.025h-0.017L-309.753,375.385z"/>
	</g>
	<g id="g9898" transform="translate(425.572,56.41)">
		<path id="path9900" fill="#FC060D" d="M-314.755,372.168c0,1.461,1.183,2.701,2.611,2.701h3.571l0.004-0.025h0.017l1.591-5.361
			h-0.041h-5.142C-313.572,369.483-314.755,370.723-314.755,372.168"/>
	</g>
	<g id="g9902" transform="translate(422.89,54.616)">
		<path id="path9904" fill="#FC060D" d="M-326.114,383.353h-2.916c-0.648,0-1.178,0.541-1.178,1.195s0.492,1.219,1.178,1.219h2.916
			c0.686,0,1.21-0.564,1.21-1.219S-325.453,383.353-326.114,383.353"/>
	</g>
	<g id="g9906" transform="translate(423.721,56.401)">
		<path id="path9908" fill="#FC060D" d="M-322.594,372.224c0-0.686-0.539-1.203-1.178-1.203h-2.989
			c-0.659,0-1.198,0.518-1.198,1.203c0,0.648,0.539,1.189,1.198,1.189h2.989C-323.117,373.413-322.594,372.872-322.594,372.224"/>
	</g>
	<g id="g9910" transform="translate(425.15,55.401)">
		<path id="path9912" fill="#FC060D" d="M-316.542,378.46c0-0.975-0.833-1.756-1.754-1.756h-4.718c-0.988,0-1.737,0.781-1.737,1.756
			c0,0.941,0.749,1.736,1.737,1.736h4.718C-317.375,380.197-316.542,379.402-316.542,378.46"/>
	</g>
	<g id="g9914" transform="translate(420.734,58.189)">
		<path id="path9916" fill="#FC060D" d="M-335.244,361.077h2.915c0.702,0,1.231-0.551,1.231-1.215c0-0.676-0.561-1.215-1.231-1.215
			h-2.915c-0.691,0-1.215,0.539-1.215,1.215C-336.459,360.526-335.935,361.077-335.244,361.077"/>
	</g>
	<g id="g9918" transform="translate(434.971,58.104)">
		<path id="path9920" fill="#FC060D" d="M-274.95,361.607h-3.309c-0.785,0-1.445-0.635-1.445-1.439c0-0.797,0.66-1.441,1.445-1.441
			h3.309c0.78,0,1.393,0.645,1.393,1.441C-273.557,360.972-274.169,361.607-274.95,361.607 M-278.059,371.882h-3.319
			c-0.738,0-1.419-0.592-1.419-1.408c0-0.807,0.681-1.445,1.419-1.445h3.319c0.806,0,1.45,0.639,1.45,1.445
			C-276.609,371.291-277.253,371.882-278.059,371.882 M-281.159,382.279h-3.271c-0.838,0-1.46-0.676-1.46-1.459
			c0-0.793,0.622-1.432,1.46-1.432h3.271c0.822,0,1.455,0.639,1.455,1.432C-279.703,381.603-280.336,382.279-281.159,382.279
			 M-287.865,377.197h-3.287c-0.78,0-1.44-0.645-1.44-1.439c0-0.84,0.66-1.451,1.44-1.451h3.287c0.791,0,1.435,0.611,1.435,1.451
			C-286.43,376.552-287.074,377.197-287.865,377.197 M-294.565,371.882h-3.293c-0.816,0-1.439-0.592-1.439-1.408
			c0-0.807,0.623-1.445,1.439-1.445h3.293c0.784,0,1.444,0.639,1.444,1.445C-293.12,371.291-293.781,371.882-294.565,371.882
			 M-297.68,382.279h-3.262c-0.812,0-1.477-0.676-1.477-1.459c0-0.793,0.665-1.432,1.477-1.432h3.262
			c0.807,0,1.476,0.639,1.476,1.432C-296.204,381.603-296.873,382.279-297.68,382.279 M-308.863,377.683
			c-1.114,0-2.01-0.863-2.01-1.926c0-1.1,0.896-2.006,2.01-2.006h5.366c1.078,0,1.989,0.906,1.989,2.006
			c0,1.063-0.911,1.926-1.989,1.926H-308.863z M-305.774,363.156h5.403c1.073,0,1.947,0.916,1.947,1.975c0,1.104-0.874,2-1.947,2
			h-5.403c-1.125,0-1.989-0.896-1.989-2C-307.763,364.072-306.899,363.156-305.774,363.156 M-294.764,358.726h3.282
			c0.801,0,1.45,0.645,1.45,1.441c0,0.805-0.649,1.439-1.45,1.439h-3.282c-0.775,0-1.44-0.635-1.44-1.439
			C-296.204,359.371-295.539,358.726-294.764,358.726 M-288.053,363.71h3.267c0.822,0,1.445,0.65,1.445,1.42
			c0,0.814-0.623,1.469-1.445,1.469h-3.267c-0.785,0-1.439-0.654-1.439-1.469C-289.492,364.361-288.838,363.71-288.053,363.71
			 M-236.723,357.345h-72.14c1.12,0.313,1.964,1.346,1.964,2.602c0,1.455-1.152,2.639-2.603,2.639h-5.334l-1.565,5.203h0.042h3.832
			c1.429,0,2.612,1.23,2.612,2.717c0,1.436-1.184,2.645-2.612,2.645h-5.424l-0.016,0.025h-0.005l-1.523,5.209h3.69
			c1.435,0,2.607,1.158,2.607,2.623c0,1.293-0.948,2.383-2.236,2.654h79.448c0.544-3.635,0.832-7.355,0.832-11.146
			C-235.153,367.318-235.707,362.24-236.723,357.345"/>
	</g>
	<g id="g9922" transform="translate(420.097,54.616)">
		<path id="path9924" fill="#FC060D" d="M-337.942,383.353h-2.933c-0.659,0-1.251,0.541-1.251,1.195s0.592,1.219,1.251,1.219h2.933
			c0.659,0,1.178-0.564,1.178-1.219S-337.283,383.353-337.942,383.353"/>
	</g>
	<g id="g9926" transform="translate(421.763,55.638)">
		<path id="path9928" fill="#FC060D" d="M-330.886,376.981h-2.906c-0.664,0-1.188,0.545-1.188,1.221
			c0,0.633,0.523,1.193,1.188,1.193h2.906c0.69,0,1.209-0.561,1.209-1.193C-329.677,377.526-330.196,376.981-330.886,376.981"/>
	</g>
	<g id="g9930" transform="translate(420.694,56.631)">
		<path id="path9932" fill="#FC060D" d="M-335.414,370.791h-2.937c-0.681,0-1.204,0.518-1.204,1.203
			c0,0.648,0.523,1.189,1.204,1.189h2.937c0.67,0,1.225-0.541,1.225-1.189C-334.189,371.308-334.744,370.791-335.414,370.791"/>
	</g>
	<g>
		<g>
			<defs>
				<path id="SVGID_1_" d="M82.814,452.873c-4.779,0-8.831-0.527-11.632-1.832c-4.45-2.031-7.879-6.188-7.879-12.793
					c0-5.592,1.597-10.748,3.522-17.303l14.188-49.697c-18.019,13.56-29.667,35.095-29.667,59.371c0,41,33.227,74.229,74.228,74.229
					c33.259,0,61.393-21.854,70.847-51.975H82.814z M125.574,356.402c-8.999,0-17.626,1.597-25.609,4.523L87.799,404.25h107.193
					C184.339,376.28,157.278,356.402,125.574,356.402"/>
			</defs>
			<clipPath id="SVGID_2_">
				<use xlink:href="#SVGID_1_"  overflow="visible"/>
			</clipPath>
			<g clip-path="url(#SVGID_2_)">
				<g id="g9942" transform="translate(442.561,56.013)">
					<path id="path9944" fill="#28842E" d="M-242.805,374.643c0,41.006-33.231,74.242-74.238,74.242
						c-40.996,0-74.223-33.236-74.223-74.242c0-40.98,33.227-74.234,74.223-74.234
						C-276.037,300.409-242.805,333.663-242.805,374.643"/>
				</g>
				<g>
					<g id="g9948">
					</g>
					<g id="g11496">
						<g id="g11510">
							<defs>
								<rect id="SVGID_3_" x="51.263" y="356.402" width="148.499" height="148.516"/>
							</defs>
							<clipPath id="SVGID_4_">
								<use xlink:href="#SVGID_3_"  overflow="visible"/>
							</clipPath>
							<g id="g11524" clip-path="url(#SVGID_4_)">
								<g id="g9980">
									<g id="g9982">
										<defs>
											<rect id="SVGID_5_" x="51.347" y="356.402" width="145.074" height="148.446"/>
										</defs>
										<clipPath id="SVGID_6_">
											<use xlink:href="#SVGID_5_"  overflow="visible"/>
										</clipPath>
										<g id="g9984" clip-path="url(#SVGID_6_)">
											<g id="g9986">
												<g id="g9988">
													<defs>
														<path id="SVGID_7_" d="M198.196,445.754c-8.329,40.148-47.64,65.93-87.787,57.602
															C70.271,495,44.488,455.689,52.833,415.553c8.351-40.142,47.661-65.919,87.798-57.581
															C180.773,366.312,206.551,405.621,198.196,445.754"/>
													</defs>
													<clipPath id="SVGID_8_">
														<use xlink:href="#SVGID_7_"  overflow="visible"/>
													</clipPath>
													<g id="g9990" clip-path="url(#SVGID_8_)">
														<g id="g9992">
															<g id="g9994">
																<defs>
																	
																		<rect id="SVGID_9_" x="37.756" y="343.187" transform="matrix(-0.9791 -0.2036 0.2036 -0.9791 157.5023 877.4459)" width="172.256" height="174.869"/>
																</defs>
																<clipPath id="SVGID_10_">
																	<use xlink:href="#SVGID_9_"  overflow="visible"/>
																</clipPath>
																<g id="g9998" clip-path="url(#SVGID_10_)">
																	<g id="g10000">
																		
																			<rect x="37.756" y="343.187" transform="matrix(-0.9791 -0.2036 0.2036 -0.9791 157.5023 877.4459)" fill="none" width="172.256" height="174.869"/>
																	</g>
																</g>
															</g>
														</g>
													</g>
												</g>
											</g>
										</g>
									</g>
								</g>
								<g id="g11538">
									<g id="g10012">
									</g>
									<g id="g11552">
										<g id="g11566">
											<defs>
												<rect id="SVGID_11_" x="114.529" y="357.342" width="77.144" height="56.513"/>
											</defs>
											<clipPath id="SVGID_12_">
												<use xlink:href="#SVGID_11_"  overflow="visible"/>
											</clipPath>
											<g id="g10774" clip-path="url(#SVGID_12_)">
												<g id="g10788">
													<g id="g10802">
														<defs>
															<rect id="SVGID_13_" x="114.529" y="357.344" width="77.144" height="56.513"/>
														</defs>
														<clipPath id="SVGID_14_">
															<use xlink:href="#SVGID_13_"  overflow="visible"/>
														</clipPath>
														<g id="g10816" clip-path="url(#SVGID_14_)">
															<g id="g10830">
																<g id="g10328">
																</g>
																<g id="g10330">
																	<g id="g10332">
																	</g>
																</g>
																<g id="g10344">
																	<g id="g10342">
																	</g>
																	<g id="g10346">
																		<rect x="115.728" y="357.784" fill="none" width="75.155" height="55.039"/>
																	</g>
																</g>
																<g id="g10358">
																	<g id="g10356">
																	</g>
																	<g id="g10360">
																		<rect x="116.937" y="358.226" fill="none" width="73.15" height="53.557"/>
																	</g>
																</g>
																<g id="g10372">
																	<g id="g10370">
																	</g>
																	<g id="g10374">
																		<rect x="118.136" y="358.662" fill="none" width="71.155" height="52.086"/>
																	</g>
																</g>
																<g id="g10386">
																	<g id="g10384">
																	</g>
																	<g id="g10388">
																		<rect x="119.34" y="359.104" fill="none" width="69.161" height="50.607"/>
																	</g>
																</g>
																<g id="g10400">
																	<g id="g10398">
																	</g>
																	<g id="g10402">
																		<rect x="120.544" y="359.542" fill="none" width="67.161" height="49.136"/>
																	</g>
																</g>
																<g id="g10414">
																	<g id="g10412">
																	</g>
																	<g id="g10416">
																		<rect x="121.742" y="359.983" fill="none" width="65.172" height="47.656"/>
																	</g>
																</g>
																<g id="g10428">
																	<g id="g10426">
																	</g>
																	<g id="g10430">
																		<rect x="122.946" y="360.419" fill="none" width="63.172" height="46.18"/>
																	</g>
																</g>
																<g id="g10442">
																	<g id="g10440">
																	</g>
																	<g id="g10444">
																		<rect x="124.151" y="360.862" fill="none" width="61.177" height="44.705"/>
																	</g>
																</g>
																<g id="g10456">
																	<g id="g10454">
																	</g>
																	<g id="g10458">
																		<rect x="125.35" y="361.298" fill="none" width="59.188" height="43.233"/>
																	</g>
																</g>
																<g id="g10470">
																	<g id="g10468">
																	</g>
																	<g id="g10472">
																		<rect x="126.549" y="361.741" fill="none" width="57.193" height="41.753"/>
																	</g>
																</g>
																<g id="g10484">
																	<g id="g10482">
																	</g>
																	<g id="g10486">
																		<rect x="127.753" y="362.177" fill="none" width="55.193" height="40.278"/>
																	</g>
																</g>
																<g id="g10498">
																	<g id="g10496">
																	</g>
																	<g id="g10500">
																		<rect x="128.956" y="362.619" fill="none" width="53.2" height="38.803"/>
																	</g>
																</g>
																<g id="g10512">
																	<g id="g10510">
																	</g>
																	<g id="g10514">
																		<rect x="130.161" y="363.061" fill="none" width="51.198" height="37.327"/>
																	</g>
																</g>
																<g id="g10526">
																	<g id="g10524">
																	</g>
																	<g id="g10528">
																		<rect x="131.364" y="363.498" fill="none" width="49.2" height="35.852"/>
																	</g>
																</g>
																<g id="g10540">
																	<g id="g10538">
																	</g>
																	<g id="g10542">
																		<rect x="132.563" y="363.934" fill="none" width="47.21" height="34.382"/>
																	</g>
																</g>
																<g id="g10554">
																	<g id="g10552">
																	</g>
																	<g id="g10556">
																		<rect x="133.768" y="364.376" fill="none" width="45.216" height="32.901"/>
																	</g>
																</g>
																<g id="g10568">
																	<g id="g10566">
																	</g>
																	<g id="g10570">
																		<rect x="134.966" y="364.818" fill="none" width="43.222" height="31.427"/>
																	</g>
																</g>
																<g id="g10582">
																	<g id="g10580">
																	</g>
																	<g id="g10584">
																		<rect x="136.171" y="365.254" fill="none" width="41.23" height="29.951"/>
																	</g>
																</g>
																<g id="g10596">
																	<g id="g10594">
																	</g>
																	<g id="g10598">
																		<rect x="137.37" y="365.697" fill="none" width="39.241" height="28.475"/>
																	</g>
																</g>
																<g id="g10610">
																	<g id="g10608">
																	</g>
																	<g id="g10612">
																		<rect x="138.573" y="366.133" fill="none" width="37.242" height="27"/>
																	</g>
																</g>
																<g id="g10624">
																	<g id="g10622">
																	</g>
																	<g id="g10626">
																		<rect x="139.777" y="366.576" fill="none" width="35.242" height="25.523"/>
																	</g>
																</g>
																<g id="g10638">
																	<g id="g10636">
																	</g>
																	<g id="g10640">
																		<rect x="140.977" y="367.012" fill="none" width="33.253" height="24.054"/>
																	</g>
																</g>
																<g id="g10652">
																	<g id="g10650">
																	</g>
																	<g id="g10654">
																		<rect x="142.181" y="367.449" fill="none" width="31.259" height="22.579"/>
																	</g>
																</g>
																<g id="g10666">
																	<g id="g10664">
																	</g>
																	<g id="g10668">
																		<rect x="143.385" y="367.89" fill="none" width="29.259" height="21.104"/>
																	</g>
																</g>
																<g id="g10680">
																	<g id="g10678">
																	</g>
																	<g id="g10682">
																		<rect x="144.583" y="368.327" fill="none" width="27.27" height="19.634"/>
																	</g>
																</g>
																<g id="g10694">
																	<g id="g10692">
																	</g>
																	<g id="g10696">
																		<rect x="145.788" y="368.763" fill="none" width="25.274" height="18.158"/>
																	</g>
																</g>
																<g id="g10708">
																	<g id="g10706">
																	</g>
																	<g id="g10710">
																		<rect x="146.992" y="369.201" fill="none" width="23.274" height="16.688"/>
																	</g>
																</g>
																<g id="g10722">
																	<g id="g10720">
																	</g>
																	<g id="g10724">
																		<rect x="148.19" y="369.636" fill="none" width="21.286" height="15.219"/>
																	</g>
																</g>
																<g id="g10736">
																	<g id="g10734">
																	</g>
																	<g id="g10738">
																		<rect x="149.39" y="370.079" fill="none" width="19.291" height="13.743"/>
																	</g>
																</g>
																<g id="g10750">
																	<g id="g10748">
																	</g>
																	<g id="g10752">
																		<rect x="150.594" y="370.515" fill="none" width="17.297" height="12.268"/>
																	</g>
																</g>
																<g id="g10764">
																	<g id="g10762">
																	</g>
																	<g id="g10766">
																		<rect x="151.792" y="370.947" fill="none" width="15.308" height="10.803"/>
																	</g>
																</g>
																<g id="g10778">
																	<g id="g10776">
																	</g>
																	<g id="g10780">
																		<rect x="152.996" y="371.383" fill="none" width="13.313" height="9.338"/>
																	</g>
																</g>
																<g id="g10792">
																	<g id="g10790">
																	</g>
																	<g id="g10794">
																		<rect x="154.194" y="371.814" fill="none" width="11.324" height="7.874"/>
																	</g>
																</g>
																<g id="g10806">
																	<g id="g10804">
																	</g>
																	<g id="g10808">
																		<rect x="155.389" y="372.246" fill="none" width="9.34" height="6.415"/>
																	</g>
																</g>
																<g id="g10820">
																	<g id="g10818">
																	</g>
																	<g id="g10822">
																		<rect x="156.588" y="372.665" fill="none" width="7.354" height="4.969"/>
																	</g>
																</g>
																<g id="g10834">
																	<g id="g10832">
																	</g>
																	<g id="g10836">
																		<rect x="157.78" y="373.069" fill="none" width="5.377" height="3.553"/>
																	</g>
																</g>
															</g>
														</g>
													</g>
												</g>
											</g>
											<g id="g11580" clip-path="url(#SVGID_12_)">
												<g id="g10846">
												</g>
												<g id="g11594">
													<g id="g11608">
														<defs>
															<rect id="SVGID_15_" x="141.678" y="364.288" width="35.934" height="26.751"/>
														</defs>
														<clipPath id="SVGID_16_">
															<use xlink:href="#SVGID_15_"  overflow="visible"/>
														</clipPath>
														<g id="g11622" clip-path="url(#SVGID_16_)">
															<g id="g11636">
																<g id="g11650">
																	<g id="g11664">
																	</g>
																</g>
															</g>
														</g>
													</g>
													<g id="g11678">
														<g id="g11680">
														</g>
														<g id="g11986">
															<g id="g11988">
																<defs>
																	<rect id="SVGID_17_" x="53.608" y="439.473" width="81.457" height="64.652"/>
																</defs>
																<clipPath id="SVGID_18_">
																	<use xlink:href="#SVGID_17_"  overflow="visible"/>
																</clipPath>
																<g id="g11990" clip-path="url(#SVGID_18_)">
																	<g id="g11992">
																		<rect x="53.608" y="439.473" fill="none" width="81.457" height="64.65"/>
																	</g>
																</g>
															</g>
														</g>
														<g id="g12512">
															<g id="g12514">
															</g>
															<g id="g12820">
																<g id="g12822">
																	<g id="g12824">
																	</g>
																</g>
															</g>
														</g>
													</g>
												</g>
											</g>
										</g>
									</g>
								</g>
							</g>
						</g>
					</g>
				</g>
			</g>
		</g>
	</g>
	<rect x="-1926.121" y="-2889.461" fill="none" width="4652.242" height="6578.922"/>
</g>
</svg>
