<svg height="1317" viewBox="0 193.7 875.4 190.7" width="2500" xmlns="http://www.w3.org/2000/svg"><g fill="#324399"><path d="m377.2 195.6c-38.6 8.4-59.2 53.2-41.2 89.9 7.2 14.7 19.3 25.6 35 31.3 6.4 2.4 29.6 2.4 36 0 5.9-2.1 13.9-6.4 16.5-8.7 1.1-1 3-2.2 4.2-2.5 2.1-.7 2.2-.4 2.5 6.1l.3 6.8 8 .5c4.4.3 8.6.4 9.3.2 1-.3 1.2-13.1 1-61.6l-.3-61.1h-20l-.3 4.5c-.4 6.9-.7 7.3-3.9 5.3-1.6-1-3-2.1-3.3-2.5-1.4-1.9-13.6-6.9-20.1-8.3-8.7-1.8-15.1-1.7-23.7.1zm27.4 24.5c7.4 3.7 12.4 8.2 16.8 15.3 10.7 17.1 7.9 37.8-7.1 51.6-7 6.5-17.2 11-25.1 11-12 0-28-10-33.7-21.1-5.6-10.7-6.7-20.4-3.6-30.7 3.5-11.5 10.9-20.8 20.1-25.2 2.5-1.2 5.2-2.5 6-3s5.7-.9 10.9-.9c8.5-.1 9.9.2 15.7 3zm-290.1-23.4c-15.1 3.1-29.9 11.6-37.6 21.5-1.9 2.4-3.6 4.5-4 4.8-1.6 1.2-6.8 12.1-8.7 18.4-2.4 7.4-3.2 25.9-1.2 27.1.5.3 23 .6 49.8.5 56.2-.1 53.2-.6 48.8 8.2-7 13.9-22.6 23.8-37.3 23.8-9.9 0-22.6-5.9-29.7-13.7l-3.9-4.3h-11.7c-6.4 0-11.9.3-12.2.6-1.6 1.6 8.5 16.7 15.2 22.7 5.5 5 15.8 11.4 19.8 12.3 1.5.4 3.2 1 3.7 1.5.6.4 5.2 1.3 10.2 2 24.6 3.1 44.4-5.4 60.9-26.3 2.7-3.4 6.8-12.2 8.9-19.3 2.2-6.9 3.1-22.5 1.6-25.3l-1.2-2.3-49.7.1c-49 .2-49.7.1-50-1.8-.5-3.3 3.6-10.1 9.7-16.1 6.4-6.2 8.6-8.1 9.8-8.1.4 0 2.2-.8 3.8-1.7 2.4-1.4 5.5-1.7 15-1.7 14.3 0 18.1 1.4 27.4 9.9l5.9 5.5h12.1c10.9 0 12.1-.2 12.1-1.8 0-3.1-6.9-12.5-14.5-19.8-9.5-9.1-17.4-13.2-32-16.4-4-.9-17.3-1.1-21-.3zm80 .2c-.9 1.6-.6 186.4.4 187 .5.4 5 .5 10 .3l9.1-.3v-35.9c0-19.7.3-36.5.6-37.4.7-1.9 3-2.1 4.1-.3 1 1.6 9.9 7.1 14.7 9.1 14.6 6.1 34.8 6.1 48.6 0 28.9-12.8 45-42.9 38.5-72.1-1.8-7.7-2-8.2-6.6-17.7-5-10.3-18.1-23-28.4-27.5-10.9-4.8-14.9-5.6-28-5.6-9.7 0-14.3.5-18 1.8-7 2.4-17.3 7.8-20.2 10.5-4 3.7-5.3 2.3-5.3-5.8v-7h-9.4c-5.2 0-9.7.4-10.1.9zm76.7 23.8c.7.6 2.4 1.4 3.8 1.8 4.4 1.4 13.6 9.3 17.2 14.7 4.7 7.1 6.8 14.2 6.8 22.8 0 23.3-18.3 41.5-41.5 41.4-16.2-.1-28.8-8-36.6-23.1-3.3-6.4-3.4-6.9-3.4-18.3s.1-11.9 3.4-18.4c5.4-10.3 16-19 26.6-21.7 4.1-1.1 22.1-.5 23.7.8zm193.5-24.1c-1 1-.8 123.6.1 125.2.6.9 3.7 1.2 11.8 1l10.9-.3.5-37c.6-40.1.7-41 6.4-50 7-10.8 15.9-16 27.7-16 10 0 16.9 3.3 24.2 11.7l5.1 5.8h10.3c10.1 0 10.3 0 10.3-2.3 0-3-8.7-15.7-14.8-21.7-7.9-7.8-14.6-11.9-22.7-14.2-5.2-1.5-18.8-1.5-24 0-4.3 1.2-13.2 5.5-17.8 8.6-3.6 2.4-4.5 1.4-4.9-5.4l-.3-5.5-11.1-.3c-6-.1-11.3.1-11.7.4zm166.8 0c-10.9 2.6-20.9 7.1-28.7 13.1-9.8 7.5-16.7 17.5-21.4 30.8-2.5 7-2.8 9.4-2.8 19 .1 9.3.5 12.3 2.8 19 8.5 24.8 29 41.5 54.1 43.9 7.5.8 23.3-.8 24.9-2.4.5-.5 1.6-1 2.4-1 1.5 0 10.5-3.9 11.2-4.9.3-.4 2.2-1.7 4.2-3 8.9-5.4 22.1-23.3 23-31.1l.3-2.5-11.5-.3-11.5-.3-1.9 3.5c-2.6 4.9-9.9 11.9-15.4 14.9-2.6 1.3-7.9 3.2-11.9 4.1-6.5 1.4-7.9 1.5-14.5.1-6.9-1.4-12.8-3.7-15.4-6-.7-.6-2.4-1.9-3.9-3-3.4-2.4-9.9-11.1-11-14.5-.4-1.4-1.3-3.1-1.9-3.9-1.8-2.3-1.3-23 .7-26.6.9-1.7 1.7-3.3 1.7-3.7 0-2 7.6-11.1 11.8-14.2 9.3-6.7 13.6-8.1 25.2-8.1 9.9 0 10.9.2 17.3 3.4 6.1 3.1 10.4 6.9 17.2 15.2 2 2.3 2.4 2.4 13.3 2.1 12.8-.4 12.6-.2 8.8-8.5-6.4-14-20.1-26.1-36-31.9-6.5-2.4-10.1-3-18.6-3.3-5.8-.2-11.4-.2-12.5.1zm132 0c-16.7 4-24 7.9-34.5 18.4-8.6 8.6-12.8 15.2-16.7 26.5-2.5 7.1-2.5 29 0 36 7.9 22.3 21 35.3 43.2 43 7.5 2.6 27.9 2.5 36-.3 17.1-5.7 32.1-18.6 38.8-33.2 4.1-8.9 4.9-12.8 5.4-25.1.5-11.3.3-13.5-1.7-20-2.8-9-5.4-14-11.3-21.6-7.2-9.4-19.2-17.7-31.7-21.8-5.3-1.7-23-3-27.5-1.9zm26.9 26.4c16.9 8.3 25.7 25.2 22.7 43.4-2.8 16.9-15 29.4-32.5 33-6.9 1.4-8.4 1.4-14.8.1-9.2-2-15.7-5.6-21.6-12.1-9.6-10.6-10.7-13.5-10.7-28.4 0-10.7.2-11.9 2.9-16.9 5.6-10.7 17-19.9 27.6-22.2 1.9-.4 7.2-.6 11.6-.5 6.8.3 9.3.9 14.8 3.6zm-727.7 119.7c-.4.3-.7 5.1-.7 10.5 0 7.2.3 9.8 1.3 9.8h115.5c.9 0 1.2-2.6 1.2-9.9 0-8.1-.3-10-1.6-10.5-2.1-.8-114.9-.8-115.7.1z"/><path d="m230.5 343.9c-.7 2.4-.2 18.2.7 18.7.4.3 514 .6 603.8.4 1.1 0 1.4-16.7.4-19.4-.6-1.5-28.1-1.6-302.4-1.6-295.3 0-301.9 0-302.5 1.9z"/></g></svg>